<?xml version="1.0" standalone="no"?>
<!DOCTYPE svg PUBLIC "-//W3C//DTD SVG 20010904//EN"
 "http://www.w3.org/TR/2001/REC-SVG-20010904/DTD/svg10.dtd">
<svg version="1.0" xmlns="http://www.w3.org/2000/svg"
 width="470.000000pt" height="470.000000pt" viewBox="0 0 470.000000 470.000000"
 preserveAspectRatio="xMidYMid meet">
<metadata>
Created by potrace 1.11, written by Peter Selinger 2001-2013
</metadata>
<g transform="translate(0.000000,470.000000) scale(0.100000,-0.100000)"
fill="#000000" stroke="none">
<path d="M1879 4157 c-160 -155 -510 -495 -712 -689 l-128 -124 -220 1 c-137
0 -223 -4 -228 -10 -4 -5 -7 -104 -6 -220 l1 -210 -77 -75 c-42 -41 -167 -163
-277 -270 -111 -107 -202 -202 -202 -210 0 -9 189 -204 420 -434 231 -230 420
-423 420 -427 0 -5 -71 -9 -159 -9 -143 0 -159 -2 -163 -17 -6 -29 -1 -383 6
-390 3 -3 173 -6 376 -6 l371 0 370 -368 c283 -281 375 -367 390 -364 52 10
121 72 143 129 15 37 13 119 -3 167 -7 24 -71 95 -201 226 -105 105 -190 195
-190 200 0 6 91 9 218 9 119 -1 223 2 230 7 18 14 18 2266 0 2268 -7 1 -161 3
-343 4 -181 1 -333 3 -336 4 -3 0 126 133 287 295 330 331 346 353 347 467 1
77 -18 115 -83 162 -72 51 -86 45 -251 -116z m-38 -1246 c3 0 6 -119 5 -263
l-1 -263 -573 -1 c-315 0 -575 -3 -578 -6 -3 -3 -6 -43 -6 -89 -1 -46 -3 -87
-5 -92 -3 -4 -33 23 -69 60 l-64 67 295 296 295 295 347 -1 c192 -1 351 -2
354 -3z m25 -1141 c0 -146 -2 -271 -4 -277 -3 -10 -60 -13 -241 -13 l-236 0
-274 274 c-150 150 -268 275 -262 277 6 2 237 4 514 4 l502 -1 1 -264z"/>
<path d="M2555 4288 c-71 -39 -107 -100 -106 -179 0 -55 32 -149 53 -157 4 -2
8 -8 8 -13 0 -4 130 -139 290 -298 159 -160 286 -292 282 -294 -4 -2 -123 -3
-265 -3 -142 1 -263 -2 -269 -5 -18 -11 -17 -2247 0 -2262 8 -6 68 -10 158
-10 114 0 144 -3 142 -14 -2 -7 -87 -97 -189 -200 -122 -124 -190 -200 -197
-222 -16 -45 -15 -143 0 -178 16 -37 72 -93 92 -93 9 0 16 -4 16 -9 0 -5 12
-12 26 -15 23 -6 60 27 390 356 201 200 367 365 370 368 3 3 203 5 445 6 275
0 443 4 450 11 6 6 8 85 7 204 l-3 194 -232 3 c-128 1 -233 6 -233 10 0 4 191
198 425 431 234 233 425 427 425 431 0 7 -67 74 -230 230 -137 131 -329 321
-332 328 -2 4 28 8 65 8 37 1 71 4 74 8 9 8 8 404 -1 413 -4 4 -139 8 -301 8
l-294 0 -82 80 c-46 44 -111 107 -144 140 -34 33 -171 166 -305 295 -133 129
-290 281 -347 338 -89 87 -109 102 -136 102 -18 0 -41 -6 -52 -12z m1226
-1633 c142 -143 259 -262 259 -266 0 -4 -241 -7 -535 -7 -485 1 -536 2 -543
17 -6 12 -8 444 -3 506 1 7 95 11 282 10 l281 0 259 -260z m39 -626 c0 -3
-121 -128 -270 -278 l-269 -271 -171 0 c-129 0 -170 3 -171 13 -3 33 -4 523
-2 532 4 12 883 16 883 4z"/>
</g>
</svg>
